<?xml version="1.0" standalone="no"?>
<!DOCTYPE svg PUBLIC "-//W3C//DTD SVG 20010904//EN"
 "http://www.w3.org/TR/2001/REC-SVG-20010904/DTD/svg10.dtd">
<svg version="1.0" xmlns="http://www.w3.org/2000/svg"
 width="460.000000pt" height="460.000000pt" viewBox="0 0 460.000000 460.000000"
 preserveAspectRatio="xMidYMid meet">

<g transform="translate(0.000000,460.000000) scale(0.100000,-0.100000)"
fill="#000000" stroke="none">
<path d="M0 4056 c0 -403 3 -547 12 -552 6 -4 25 -10 42 -14 21 -4 31 -12 30
-24 -2 -14 1 -15 15 -4 9 7 19 18 23 23 5 7 8 6 8 0 0 -6 -6 -17 -13 -24 -10
-11 -9 -13 1 -7 7 4 15 1 18 -7 8 -23 43 -28 54 -9 7 13 9 14 10 3 0 -11 4
-10 16 5 11 13 17 15 20 7 3 -7 10 -13 15 -13 4 0 7 6 5 13 -1 6 -1 9 1 5 3
-5 14 -8 26 -9 21 0 21 -1 2 -9 -11 -5 -15 -9 -8 -9 6 -1 19 -8 27 -17 9 -8
16 -11 16 -6 0 13 18 10 48 -7 16 -8 22 -19 19 -31 -4 -15 1 -17 31 -14 20 2
42 -2 49 -8 9 -7 17 -7 26 1 8 6 16 8 20 5 3 -3 10 4 16 15 10 18 9 20 -6 14
-16 -6 -16 -5 -4 10 12 16 12 17 -5 11 -18 -7 -18 -7 0 15 14 15 22 18 27 10
11 -19 42 -2 36 20 -3 13 1 21 14 24 14 4 19 15 20 44 1 49 4 37 19 -67 13
-94 18 -123 20 -130 1 -3 3 -9 4 -15 1 -5 5 -26 9 -45 4 -19 9 -48 11 -65 2
-16 9 -55 15 -85 17 -84 21 -113 36 -275 3 -33 10 -89 15 -125 14 -100 28
-262 35 -400 4 -69 15 -172 25 -230 11 -58 24 -163 30 -234 l11 -129 -24 -26
c-14 -14 -30 -37 -37 -51 -10 -18 1 -12 38 23 28 26 59 47 69 47 27 0 150 -81
167 -112 9 -14 32 -45 51 -68 19 -23 40 -60 46 -83 6 -23 20 -70 31 -105 26
-80 17 -91 -44 -53 -58 37 -80 43 -108 33 -23 -9 -23 -9 7 -15 21 -4 38 -17
52 -40 23 -38 28 -78 9 -74 -7 1 -12 -3 -11 -9 1 -6 -21 -10 -55 -11 -116 -1
-142 -3 -142 -13 0 -5 11 -10 24 -10 13 0 38 -6 56 -14 24 -10 28 -15 16 -19
-9 -4 -13 -12 -11 -19 4 -10 -12 -13 -62 -14 -83 0 -156 -7 -163 -15 -7 -7
-76 -39 -85 -39 -15 0 -95 -85 -95 -101 0 -10 -4 -20 -9 -24 -6 -3 -10 12 -9
35 0 43 1 43 93 96 12 7 19 20 17 33 -2 11 1 21 7 21 6 0 8 6 5 14 -6 15 38
43 66 41 17 -1 40 17 34 26 -4 8 35 22 54 20 6 -1 12 3 12 9 0 5 -5 10 -11 10
-5 0 -7 5 -4 10 15 24 -53 7 -115 -29 -51 -29 -67 -35 -66 -22 3 32 27 60 63
72 48 15 112 49 93 49 -8 -1 -33 -7 -55 -15 -54 -20 -82 -19 -94 4 -9 16 -6
21 17 30 15 6 44 14 65 18 21 5 38 13 38 18 0 13 -60 25 -89 18 -21 -5 -22 -3
-16 23 4 16 14 43 24 59 10 17 21 41 25 55 5 14 19 42 31 62 13 21 24 41 24
44 0 17 -42 -50 -89 -141 -34 -65 -68 -115 -97 -142 -49 -46 -54 -71 -17 -88
24 -10 29 -32 28 -127 0 -59 -3 -70 -27 -95 -32 -33 -35 -50 -24 -115 6 -36 4
-54 -8 -79 -9 -18 -16 -53 -16 -78 1 -53 13 -40 24 24 4 22 9 47 12 56 2 9 47
32 102 54 53 21 102 43 108 47 28 21 108 57 116 52 5 -3 7 0 6 7 -2 6 7 13 20
14 13 1 44 22 70 47 26 25 65 57 86 71 21 14 56 46 76 71 21 25 74 82 118 128
44 46 99 108 123 138 23 30 50 64 60 75 10 11 31 35 47 54 l29 35 14 -26 c20
-38 123 -111 209 -148 41 -18 77 -34 79 -36 3 -3 -9 -33 -27 -67 -17 -34 -33
-78 -36 -97 -3 -19 -9 -36 -15 -38 -5 -2 -7 -10 -4 -18 3 -9 -5 -27 -20 -42
-14 -15 -33 -47 -43 -72 -9 -25 -23 -52 -31 -61 -7 -8 -13 -23 -13 -32 0 -9
-4 -17 -8 -17 -5 0 -19 -19 -32 -43 -45 -81 -130 -252 -130 -262 -1 -15 -193
-268 -207 -273 -21 -6 -15 44 13 116 15 37 31 72 36 79 6 7 4 13 -4 16 -9 4
-7 6 4 6 11 1 15 7 10 23 -3 13 -1 19 5 15 5 -4 9 3 9 16 -1 12 -6 22 -11 22
-6 0 -9 -3 -8 -7 2 -5 -3 -8 -11 -8 -8 0 -18 -9 -21 -20 -3 -11 -10 -20 -15
-20 -5 0 -12 -10 -16 -22 -3 -12 -19 -36 -35 -52 -16 -17 -29 -34 -29 -38 0
-15 -62 -98 -91 -122 -48 -40 -133 -28 -145 21 -4 13 -11 20 -16 17 -6 -4 -2
6 8 22 l19 29 -28 -18 c-15 -10 -32 -15 -37 -12 -6 4 -36 -12 -68 -35 -86 -60
-164 -77 -209 -45 -32 23 -92 138 -100 191 l-6 47 -12 -47 c-8 -29 -9 -60 -4
-80 4 -17 12 -62 18 -101 8 -57 32 -170 53 -254 4 -18 -13 -20 -177 -25 -183
-6 -278 -16 -288 -30 -5 -8 -9 -7 -16 2 -7 11 -9 11 -14 -1 -3 -9 -18 -17 -34
-19 -20 -2 -29 -9 -31 -26 l-3 -22 2300 0 2301 0 0 2300 0 2300 -2300 0 -2300
0 0 -544z m1919 165 c2 -97 0 -125 -14 -155 -32 -67 -40 -46 -37 101 1 76 5
153 8 172 5 32 7 33 22 17 14 -13 18 -41 21 -135z m241 -123 c0 -9 4 -8 10 2
8 12 10 12 10 1 0 -9 7 -11 22 -8 27 7 115 -35 168 -81 38 -32 77 -89 67 -98
-2 -2 -64 5 -137 16 -125 18 -172 20 -118 5 64 -18 130 -50 139 -67 5 -10 17
-17 26 -16 9 2 18 -3 20 -9 8 -24 -60 -15 -92 12 -16 13 -24 24 -17 25 7 0 10
5 6 11 -4 8 -9 7 -14 -2 -6 -9 -16 -6 -40 14 -17 15 -42 30 -56 33 -13 3 -22
10 -19 14 6 9 -45 20 -97 20 -27 0 -50 -8 -74 -27 -44 -33 -58 -22 -43 32 13
46 49 89 99 115 41 22 140 27 140 8z m305 -128 c3 -5 1 -10 -4 -10 -6 0 -11 5
-11 10 0 6 2 10 4 10 3 0 8 -4 11 -10z m-415 -20 c-34 -11 -60 -11 -35 0 11 5
29 8 40 8 16 0 15 -2 -5 -8z m451 -28 c8 2 13 -3 11 -12 -3 -12 -1 -12 8 -3
10 9 21 7 50 -8 21 -11 47 -21 58 -22 12 0 18 -5 16 -9 -3 -4 -1 -8 4 -8 4 0
24 -13 42 -30 18 -16 39 -30 45 -30 14 0 18 -47 5 -55 -6 -4 -26 3 -45 14 -19
11 -46 22 -59 24 -14 1 -33 10 -43 18 -10 9 -25 20 -33 24 -12 6 -13 5 -2 -6
17 -18 15 -30 -5 -22 -11 4 -14 3 -9 -5 11 -18 -12 -14 -32 6 -9 9 -28 24 -41
32 -23 15 -23 15 12 14 20 -1 41 -5 49 -10 10 -6 10 -4 -1 10 -8 9 -20 15 -27
12 -8 -3 -11 0 -8 9 3 7 -3 18 -14 24 -11 6 -22 22 -24 36 -5 24 -4 25 12 10
10 -9 24 -15 31 -13z m39 13 c-7 -9 -15 -13 -19 -10 -3 3 1 10 9 15 21 14 24
12 10 -5z m-702 -112 c-10 -2 -28 -2 -40 0 -13 2 -5 4 17 4 22 1 32 -1 23 -4z
m952 -72 c0 -12 -26 -32 -33 -25 -9 10 4 34 19 34 8 0 14 -4 14 -9z m2 -80
c95 -42 147 -117 118 -170 -15 -29 -25 -26 -52 12 -12 17 -51 64 -85 104 -35
40 -63 75 -63 78 0 10 19 5 82 -24z m154 -214 c10 4 14 -3 14 -26 0 -39 -26
-53 -46 -26 -11 15 -11 20 -1 27 8 5 6 8 -8 8 -20 1 -20 1 0 16 11 8 21 10 23
5 2 -5 10 -7 18 -4z m-869 -3 c31 -6 71 -78 88 -159 13 -64 12 -96 -9 -200 -5
-24 -4 -26 3 -10 7 14 10 16 11 5 2 -30 39 58 50 120 18 99 25 104 53 40 14
-30 28 -74 32 -97 7 -46 7 -47 -92 -83 -41 -15 -49 -37 -22 -59 19 -15 20 -20
8 -38 -10 -18 -11 -24 0 -37 17 -20 26 -20 45 0 9 8 24 13 34 10 10 -4 27 1
38 9 25 19 44 19 44 0 0 -8 6 -15 13 -15 6 0 23 -3 37 -5 22 -5 22 -4 5 4 -18
9 -17 10 10 11 51 4 54 4 69 25 12 16 17 17 24 7 5 -8 18 -12 28 -10 16 2 20
-4 22 -41 l3 -44 45 44 44 43 0 -34 c0 -19 -9 -50 -20 -67 -18 -31 -18 -33 -2
-33 10 0 28 7 41 16 23 17 23 17 16 -17 -13 -69 -27 -99 -53 -118 -19 -15 -22
-20 -11 -21 9 0 28 9 42 20 14 11 28 20 31 20 27 0 -24 -235 -59 -276 -13 -15
-22 -31 -19 -36 3 -4 -2 -17 -10 -29 -8 -12 -12 -28 -9 -35 3 -8 1 -14 -4 -14
-10 0 -36 53 -48 96 -5 21 -158 104 -218 119 -31 8 -42 21 -27 30 15 9 12 30
-8 55 -16 20 -19 20 -46 6 -16 -8 -34 -12 -41 -10 -7 3 -16 0 -20 -5 -3 -6
-22 -18 -41 -26 -24 -10 -32 -18 -28 -29 5 -12 16 -15 48 -11 l41 5 -37 -18
c-42 -21 -120 -89 -161 -142 -24 -30 -29 -33 -40 -20 -6 8 -25 23 -40 33 -42
27 -67 75 -67 130 0 46 -14 65 -23 30 -3 -15 -6 -13 -14 7 -6 14 -15 38 -19
55 -5 16 -20 35 -34 42 -21 10 -26 9 -38 -8 -7 -10 -16 -34 -19 -52 -5 -30 0
-38 52 -88 31 -30 75 -67 98 -82 23 -15 77 -64 119 -107 43 -44 80 -80 83 -80
3 0 5 8 5 18 0 30 38 76 77 95 21 9 30 15 21 13 -27 -8 -22 6 17 43 19 18 35
39 35 46 0 22 22 29 35 12 6 -9 32 -28 56 -42 38 -21 41 -25 19 -25 -20 0 -22
-2 -10 -10 8 -5 30 -10 48 -10 36 0 79 -19 128 -56 26 -19 31 -29 28 -54 -4
-37 -21 -70 -35 -70 -5 0 -9 -8 -7 -17 2 -12 -3 -17 -14 -15 -13 2 -16 -2 -11
-14 4 -12 3 -15 -5 -10 -7 4 -12 2 -12 -4 0 -6 -15 -1 -32 12 -18 13 -42 28
-53 34 -20 12 -23 25 -11 55 4 10 0 24 -10 34 -14 14 -27 16 -66 11 -78 -11
-81 -13 -74 -61 6 -39 4 -44 -29 -74 -20 -17 -42 -31 -49 -31 -8 0 -16 -18
-20 -47 -7 -56 -38 -157 -48 -161 -5 -2 -5 -8 -2 -14 9 -15 -17 -99 -29 -91
-5 3 -7 2 -4 -4 7 -12 -40 -103 -62 -120 -9 -6 -19 -9 -23 -7 -5 3 -8 1 -8 -5
0 -5 6 -12 13 -15 6 -2 3 -4 -8 -4 -39 2 -56 -2 -50 -12 9 -15 1 -12 -46 15
-24 14 -52 25 -61 25 -9 0 -21 8 -27 18 -11 19 -17 15 -50 -40 l-21 -36 51
-39 c28 -21 62 -48 75 -60 14 -13 27 -23 30 -23 2 0 16 25 30 55 46 96 43 60
-2 -44 -20 -45 -26 -52 -39 -41 -11 9 -19 10 -28 1 -15 -12 -109 31 -162 74
l-30 24 37 33 c20 18 46 51 57 72 18 36 19 40 4 51 -10 7 -13 17 -8 25 6 10 3
12 -12 8 -14 -4 -19 0 -18 11 3 33 47 103 76 119 16 10 27 23 24 30 -3 8 -5
23 -5 34 0 23 -64 89 -110 113 -18 9 -29 12 -26 6 10 -15 0 -14 -16 2 -7 7
-25 18 -40 24 -28 13 -39 43 -16 43 7 0 -9 22 -36 49 -26 26 -48 54 -50 62 -5
31 -19 63 -42 96 -25 37 -33 29 -12 -10 18 -35 18 -68 -1 -89 -17 -17 -19 -17
-25 -3 -3 9 -3 47 0 83 4 48 0 98 -15 175 -22 114 -27 174 -12 147 5 -8 16
-58 25 -110 9 -52 19 -106 22 -120 l6 -25 11 25 c5 14 11 71 11 128 1 79 -2
105 -13 112 -12 7 -13 17 -5 46 15 61 92 102 103 56 6 -23 6 -23 36 9 17 17
43 40 59 50 28 17 29 20 27 89 -1 40 1 102 5 138 l7 67 34 -70 c28 -59 31 -70
18 -78 -26 -14 -16 -24 29 -29 38 -5 87 -32 75 -42 -2 -2 -23 -15 -46 -30 -30
-18 -41 -30 -36 -42 5 -14 3 -15 -16 -5 -41 22 -38 6 6 -26 38 -29 43 -31 43
-13 0 11 12 26 30 35 39 20 42 19 63 -12 15 -24 17 -25 12 -5 -5 17 -2 22 11
22 22 0 87 22 94 32 3 4 19 6 35 4 19 -2 38 5 53 18 13 12 25 20 28 19 29 -18
32 27 3 45 -11 7 -19 21 -18 30 4 42 2 42 -110 41 -60 -1 -114 2 -120 5 -15
10 -31 74 -31 129 l0 48 32 -38 c18 -21 39 -42 46 -46 7 -5 20 -16 30 -26 9
-10 25 -21 36 -25 16 -5 14 -1 -8 28 -14 19 -26 42 -26 51 0 9 -10 35 -22 58
-23 45 -60 158 -54 165 3 2 21 -30 42 -71 20 -42 50 -89 66 -106 15 -16 28
-35 28 -40 0 -6 15 -18 33 -27 l32 -16 -31 33 c-62 69 -84 108 -98 176 -8 37
-12 70 -10 73 3 3 26 12 52 21 48 16 79 20 119 13z m-1591 -77 c4 -30 -15 -28
-31 2 -15 30 -15 30 7 22 12 -4 22 -15 24 -24z m2429 -94 c27 -61 32 -102 13
-121 -18 -18 -25 -15 -32 18 -3 17 -11 29 -18 28 -6 -2 -13 6 -15 17 -3 16 -2
17 6 5 16 -23 14 8 -4 60 -21 60 -20 73 5 60 12 -6 32 -36 45 -67z m88 41 c-3
-8 -12 -13 -20 -10 -8 3 -12 2 -9 -3 3 -5 -1 -22 -9 -37 -13 -25 -15 -26 -20
-8 -4 10 -13 31 -21 47 l-15 27 50 0 c42 0 49 -3 44 -16z m-576 -159 c-3 -7
-26 -20 -52 -29 -44 -14 -46 -14 -40 2 13 30 35 116 35 137 0 12 12 -3 31 -38
17 -32 28 -64 26 -72z m-246 -41 c-5 -16 -10 -21 -10 -12 -1 18 10 51 15 45 2
-1 -1 -16 -5 -33z m409 7 c0 -5 3 -23 6 -40 6 -27 4 -31 -15 -31 -17 0 -21 6
-21 33 0 19 3 37 7 40 9 10 23 9 23 -2z m390 -21 c-12 -8 -11 -13 8 -33 12
-13 20 -26 17 -29 -3 -3 8 -17 24 -31 26 -22 40 -67 20 -67 -3 0 -4 -11 -1
-25 2 -14 0 -25 -6 -25 -5 0 -10 18 -10 40 0 22 4 40 9 40 8 0 -25 41 -78 96
-21 21 -15 44 10 44 17 0 19 -2 7 -10z m-54 -27 c-7 -7 -26 7 -26 19 0 6 6 6
15 -2 9 -7 13 -15 11 -17z m-1611 -61 c-9 -81 -18 -93 -47 -63 -16 18 -17 21
-4 10 18 -13 19 -12 13 4 -3 9 -2 17 3 17 6 0 10 16 10 35 0 19 5 35 10 35 6
0 10 8 10 17 0 9 3 14 6 10 3 -3 3 -32 -1 -65z m107 -62 l-10 -55 -1 61 c0 34
2 77 7 95 l7 34 3 -40 c1 -22 -1 -65 -6 -95z m358 69 c0 -5 -11 -9 -25 -9 -20
0 -25 5 -25 25 0 25 1 25 25 9 14 -9 25 -20 25 -25z m645 31 c3 -5 2 -10 -4
-10 -5 0 -13 5 -16 10 -3 6 -2 10 4 10 5 0 13 -4 16 -10z m490 -30 c24 -9 26
-13 23 -67 -3 -57 -4 -58 -34 -61 -36 -3 -44 12 -44 84 0 56 7 62 55 44z
m-1555 -62 c0 -10 10 -36 22 -59 l22 -42 -30 -23 c-16 -13 -32 -24 -36 -24
-10 0 -10 115 -2 160 5 22 9 28 15 18 5 -7 9 -21 9 -30z m1477 10 c-3 -7 -5
-2 -5 12 0 14 2 19 5 13 2 -7 2 -19 0 -25z m-245 -20 c-6 -6 -7 0 -4 19 5 21
7 23 10 9 2 -10 0 -22 -6 -28z m407 -15 c-1 -32 -4 -83 -9 -113 -6 -47 -7 -39
-9 58 0 69 3 112 9 112 6 0 10 -25 9 -57z m-1696 -90 c3 -32 13 -63 23 -75 15
-16 16 -21 4 -28 -8 -5 -19 -6 -25 -2 -5 3 -3 -3 5 -13 14 -17 13 -18 -3 -12
-11 4 -16 3 -12 -3 3 -5 -1 -20 -10 -33 -8 -13 -13 -31 -9 -40 3 -9 -3 -25
-15 -38 -21 -22 -21 -22 -36 -3 -8 10 -15 23 -15 27 0 5 -3 6 -8 3 -4 -2 -6
13 -4 35 2 21 8 39 12 39 5 0 6 10 2 22 -4 16 -2 19 9 13 12 -7 12 -6 1 7 -9
11 -10 18 -2 23 5 3 7 17 4 30 -4 16 0 26 13 34 10 6 14 11 9 11 -5 0 -2 8 5
17 12 14 12 15 0 9 -9 -6 -8 0 4 17 24 38 42 24 48 -40z m-261 -87 c7 5 9 -13
6 -55 -2 -33 -2 -61 2 -61 11 0 26 -88 19 -114 -4 -15 -3 -24 2 -20 12 7 12
-52 0 -93 -9 -33 6 -62 24 -45 5 4 5 1 1 -6 -4 -7 -12 -10 -17 -7 -5 4 -9 -1
-9 -9 0 -10 6 -13 17 -9 11 4 14 3 9 -6 -6 -8 -2 -11 10 -9 15 2 19 -4 20 -34
1 -21 -3 -38 -7 -38 -5 0 -9 -8 -9 -18 0 -10 -7 -28 -16 -40 -8 -12 -13 -26
-10 -31 4 -5 2 -11 -4 -13 -5 -1 -11 -23 -12 -46 -1 -24 -8 -50 -15 -58 -8 -8
-11 -14 -7 -14 3 0 1 -7 -6 -15 -10 -12 -16 -13 -27 -4 -11 10 -13 50 -12 208
1 108 6 250 10 316 4 66 9 149 10 185 2 36 4 57 7 47 2 -9 8 -14 14 -11z
m2308 -31 c294 -8 451 -19 477 -34 17 -9 -148 -21 -290 -21 -50 0 -88 -3 -85
-6 9 -9 87 -13 329 -20 169 -5 228 -3 234 6 10 15 7 17 -44 24 -47 6 -59 12
-48 23 9 8 98 21 155 22 40 1 43 -1 59 -39 10 -22 25 -43 35 -46 24 -7 36 -55
41 -159 6 -128 -13 -165 -59 -114 -42 47 -69 53 -279 59 -110 4 -357 5 -550 4
l-350 -3 -23 -27 c-20 -22 -29 -26 -59 -21 -20 4 -44 13 -52 22 -18 18 -5 20
35 5 39 -15 40 -6 3 39 -18 23 -30 42 -28 44 2 1 29 11 59 21 30 10 60 23 67
28 12 9 26 69 38 160 l6 47 52 -4 c29 -2 153 -6 277 -10z m-360 -25 c0 -16 -4
-30 -10 -30 -11 0 -14 43 -3 53 11 12 13 8 13 -23z m-1770 -115 c0 -8 -4 -15
-8 -15 -5 0 -9 7 -9 15 0 8 4 15 9 15 4 0 8 -7 8 -15z m-33 -57 c-3 -7 -5 -2
-5 12 0 14 2 19 5 13 2 -7 2 -19 0 -25z m47 16 c3 -8 2 -12 -4 -9 -6 3 -10 10
-10 16 0 14 7 11 14 -7z m1013 10 c-3 -3 -12 -4 -19 -1 -8 3 -5 6 6 6 11 1 17
-2 13 -5z m-1017 -78 c0 -2 -7 -9 -15 -16 -13 -11 -14 -10 -9 4 5 14 24 23 24
12z m37 -58 c-3 -8 -6 -5 -6 6 -1 11 2 17 5 13 3 -3 4 -12 1 -19z m70 -20 c-3
-8 -6 -5 -6 6 -1 11 2 17 5 13 3 -3 4 -12 1 -19z m2770 -93 c6 -44 12 -142 12
-218 l1 -138 -36 -15 c-20 -9 -40 -12 -45 -7 -5 5 -10 107 -11 226 -3 233 -2
241 47 235 17 -3 22 -15 32 -83z m-1166 -97 c0 -84 4 -191 8 -238 4 -47 6 -87
5 -88 -5 -7 -89 56 -136 102 -54 52 -62 71 -22 56 29 -11 74 -13 74 -3 0 3 -7
14 -15 23 -12 13 -13 23 -5 44 13 34 13 150 1 194 -9 31 -9 32 15 26 20 -5 24
-2 24 15 0 16 6 21 25 21 l25 0 1 -152z m-1490 95 c13 -16 12 -17 -3 -4 -10 7
-18 15 -18 17 0 8 8 3 21 -13z m1334 -28 c33 -57 41 -106 25 -145 -13 -32 -43
-40 -81 -20 -15 9 -19 22 -19 71 0 38 4 58 10 54 6 -3 10 4 10 17 0 32 11 68
20 68 5 0 20 -20 35 -45z m1220 -44 c9 -79 -13 -119 -51 -93 -19 13 -25 45
-18 99 6 50 8 53 34 53 27 0 28 -3 35 -59z m-2694 12 c-12 -20 -14 -14 -5 12
4 9 9 14 11 11 3 -2 0 -13 -6 -23z m71 -57 c-3 -5 0 -6 6 -2 10 6 61 -11 72
-25 3 -3 15 -11 28 -18 12 -6 22 -19 22 -27 0 -8 4 -13 8 -10 5 3 19 -4 30
-15 12 -11 22 -17 22 -14 0 3 6 0 14 -7 8 -7 11 -17 8 -22 -3 -5 0 -6 5 -3 6
4 16 1 22 -7 7 -8 8 -15 2 -18 -5 -1 -11 -10 -13 -18 -7 -31 -98 -64 -113 -40
-4 6 -10 8 -15 5 -14 -9 -40 6 -40 24 0 12 -2 13 -9 3 -6 -11 -10 -10 -15 4
-4 10 -1 21 6 26 10 5 8 8 -5 8 -10 0 -15 4 -12 10 3 5 -2 21 -11 35 -10 15
-17 47 -18 75 -1 28 -4 50 -8 50 -5 0 -8 15 -7 33 l1 32 12 -35 c8 -19 11 -39
8 -44z m1858 19 c8 -2 18 -4 22 -4 24 -3 36 -154 17 -209 -13 -37 -25 -42
-114 -49 -68 -5 -71 -5 -84 21 -8 14 -14 39 -14 56 0 46 34 142 63 173 26 29
27 29 110 12z m-1953 -17 c-3 -8 -6 -5 -6 6 -1 11 2 17 5 13 3 -3 4 -12 1 -19z
m30 0 c-3 -8 -6 -5 -6 6 -1 11 2 17 5 13 3 -3 4 -12 1 -19z m208 -18 c3 -5 1
-10 -4 -10 -6 0 -11 5 -11 10 0 6 2 10 4 10 3 0 8 -4 11 -10z m2469 -152 c16
-27 -10 -48 -59 -48 -69 0 -74 56 -7 63 49 5 54 4 66 -15z m-505 -12 c15 -17
-12 -48 -34 -40 -18 7 -19 26 -3 42 16 16 23 15 37 -2z m-2044 -125 c-14 -2
-15 -5 -4 -12 10 -6 11 -9 1 -9 -7 0 -17 10 -22 23 -5 12 -9 16 -9 9 -1 -10
-4 -10 -15 0 -24 22 -7 28 31 10 26 -12 31 -18 18 -21z m58 22 c-7 -2 -19 -2
-25 0 -7 3 -2 5 12 5 14 0 19 -2 13 -5z m-119 -19 c21 -20 20 -34 -1 -34 -12
0 -18 8 -19 25 -2 29 -1 30 20 9z m-194 -43 c0 -5 8 -11 18 -13 23 -6 -53 -28
-96 -28 -30 0 -31 2 -20 20 7 11 19 21 28 24 29 8 70 6 70 -3z m1805 -22 c31
-17 62 -40 69 -51 8 -11 47 -42 88 -70 40 -28 87 -62 103 -78 17 -15 46 -37
65 -49 50 -32 -68 78 -147 136 -35 26 -61 48 -59 50 9 9 213 -88 298 -143 123
-79 147 -94 154 -94 11 0 139 -80 169 -106 29 -25 29 -25 5 -19 -14 4 -43 17
-65 28 -73 38 -147 66 -134 51 6 -8 16 -14 22 -14 8 0 162 -75 174 -84 4 -3
-53 -176 -71 -219 -10 -22 -16 -43 -14 -49 4 -11 98 226 98 247 0 27 20 16 48
-28 15 -25 38 -87 52 -145 14 -56 28 -102 31 -102 3 0 3 -20 -1 -45 -4 -25 -4
-45 -1 -45 3 0 7 -27 7 -60 1 -33 7 -66 14 -75 10 -12 9 -23 -5 -57 -18 -46
-61 -98 -81 -98 -6 0 -15 -7 -18 -16 -3 -8 -10 -13 -15 -9 -5 3 -12 1 -16 -5
-4 -6 -10 -8 -15 -5 -5 3 -11 1 -15 -5 -4 -7 -13 -7 -26 0 -10 6 -19 7 -18 3
4 -22 -2 -32 -16 -27 -8 4 -15 1 -15 -6 0 -6 -4 -8 -10 -5 -5 3 -10 -1 -10
-11 0 -13 -3 -14 -14 -5 -11 10 -16 8 -21 -8 -3 -11 -12 -18 -19 -15 -7 3 -25
-11 -40 -31 -16 -20 -31 -34 -34 -31 -3 4 3 13 14 22 19 15 19 16 -1 10 -18
-5 -18 -5 -4 6 9 7 16 17 17 21 2 27 23 67 32 62 7 -4 14 2 17 14 3 12 10 21
15 21 5 0 6 5 3 10 -3 6 -1 10 6 10 16 0 38 31 39 53 0 10 4 16 9 13 5 -3 11
3 14 14 8 32 -8 23 -52 -26 -39 -44 -45 -57 -42 -94 0 -10 -1 -11 -5 -2 -9 19
-20 15 -59 -19 -19 -17 -35 -26 -35 -20 0 6 5 11 11 11 5 0 8 4 4 9 -3 5 3 12
14 16 25 8 33 29 21 60 -5 14 -6 25 -1 25 5 0 9 11 9 25 0 14 15 62 35 107 38
92 51 128 43 128 -7 0 -82 -160 -90 -193 -4 -15 -10 -26 -14 -23 -4 2 -8 -3
-9 -12 -2 -29 -27 -92 -37 -92 -4 0 -5 12 -2 28 20 81 22 104 15 181 -4 46
-12 88 -18 94 -8 8 -11 7 -12 -3 0 -8 -2 -24 -4 -35 -6 -30 -17 -165 -17 -203
l1 -33 -18 23 -18 22 -8 -23 c-3 -12 -4 -46 0 -74 4 -34 3 -47 -4 -37 -5 8
-14 53 -19 101 -10 79 -43 192 -63 214 -11 12 -11 -18 0 -70 5 -22 12 -62 16
-89 3 -27 8 -53 11 -57 3 -5 5 -29 6 -53 0 -31 4 -43 12 -39 6 4 5 -1 -2 -10
-8 -9 -11 -21 -7 -27 3 -5 3 -10 0 -10 -3 0 -13 15 -21 33 -14 29 -15 30 -11
5 3 -19 0 -25 -10 -21 -7 3 -13 10 -13 17 0 7 -4 6 -9 -2 -11 -17 -22 -17 -32
0 -11 17 -46 19 -60 2 -7 -9 -8 -14 -1 -14 6 0 12 6 15 13 2 6 4 0 3 -15 -1
-21 -4 -24 -14 -15 -10 8 -19 8 -32 -1 -16 -9 -20 -8 -25 7 -3 11 -13 25 -23
33 -15 12 -15 11 1 -14 21 -33 21 -39 2 -32 -8 4 -15 1 -15 -5 0 -11 14 -15
35 -11 6 1 5 -4 -2 -11 -9 -9 -16 -9 -26 -1 -8 7 -16 10 -18 8 -2 -2 -5 7 -5
20 -1 15 2 22 10 17 6 -3 7 -2 3 3 -8 9 -12 10 -38 13 -6 0 -9 8 -6 15 4 10 1
13 -9 9 -20 -7 -18 -21 5 -28 14 -4 19 -13 16 -33 -2 -15 -4 -31 -4 -36 -1 -5
-8 -3 -16 4 -11 9 -13 16 -6 23 7 7 5 17 -6 29 -14 16 -15 22 -4 40 7 11 8 17
3 14 -6 -3 -13 0 -15 6 -3 7 -4 -3 -3 -23 3 -48 -17 -66 -38 -34 -9 13 -26 34
-38 46 -13 12 -17 19 -10 15 6 -4 12 -2 12 4 0 7 -7 10 -15 6 -8 -3 -26 5 -40
18 -29 27 -59 25 -78 -5 -9 -14 -14 -16 -26 -6 -11 10 -13 9 -9 -3 5 -14 -17
-70 -28 -70 -2 0 3 14 12 31 13 26 13 31 2 26 -8 -3 -21 -1 -29 5 -11 8 -10 9
4 4 20 -6 23 9 3 17 -21 8 -29 -23 -11 -37 24 -17 9 -42 -25 -41 -27 1 -71 33
-70 52 1 4 12 -5 25 -22 28 -34 34 -22 8 14 -9 14 -11 21 -4 16 8 -4 17 -2 23
6 7 11 8 9 4 -5 -4 -10 -4 -28 0 -39 5 -16 8 -17 15 -6 12 19 11 31 -2 23 -8
-4 -9 1 -3 17 4 13 7 31 6 40 0 10 7 15 21 13 12 -1 27 -3 32 -3 6 -1 4 -5 -4
-10 -11 -7 -11 -10 0 -17 8 -4 14 -3 17 5 3 8 8 9 16 2 9 -7 17 -5 29 9 9 11
12 22 7 25 -5 3 -7 12 -4 19 3 8 1 17 -4 20 -5 3 -8 -7 -6 -24 2 -16 -1 -32
-6 -35 -6 -4 -10 -3 -9 2 3 20 -2 25 -15 14 -11 -9 -18 -8 -30 4 -11 11 -16
12 -16 4 0 -7 -8 -5 -20 6 -20 18 -21 18 -14 0 5 -13 4 -16 -4 -11 -7 4 -12 2
-12 -3 0 -6 -5 -11 -11 -11 -6 0 -9 7 -6 14 4 10 1 13 -9 9 -19 -7 -18 6 3 29
14 15 14 21 3 31 -10 9 -11 9 -6 -1 9 -16 -12 -44 -26 -36 -6 4 -5 -2 1 -14
14 -27 14 -35 -1 -26 -7 4 -8 3 -4 -4 4 -7 3 -12 -2 -12 -16 0 -22 13 -11 27
7 8 8 13 1 13 -5 0 -17 -12 -27 -26 -13 -20 -14 -28 -5 -34 7 -5 9 -16 5 -29
-6 -21 -7 -21 -20 -4 -7 10 -17 14 -21 10 -5 -4 -2 -12 6 -17 17 -11 9 -13
-15 -4 -9 4 -25 25 -36 48 -11 22 -13 32 -5 21 35 -45 36 -46 53 -29 14 13 14
17 2 25 -8 5 -19 7 -26 4 -14 -5 -5 25 11 38 7 5 4 7 -7 3 -11 -3 -17 -1 -16
7 3 24 -1 34 -26 63 -25 29 -31 44 -19 44 4 0 13 -8 21 -17 12 -15 12 -13 0
12 -10 20 -12 38 -6 53 5 12 6 22 2 22 -13 0 55 52 107 82 30 18 57 34 60 37
3 3 13 11 22 16 9 6 35 23 57 38 26 19 54 30 81 31 37 2 49 9 91 55 41 45 51
51 68 42 11 -6 22 -11 25 -11 14 0 70 118 68 144 l-3 30 33 -29 c18 -17 39
-36 45 -44 19 -21 27 -7 12 21 -16 29 -45 130 -64 223 -29 145 -43 177 -96
223 -43 38 -60 62 -44 62 3 0 30 -14 60 -31z m60 11 c10 -11 24 -20 31 -20 7
0 15 -4 19 -9 8 -13 -51 4 -81 24 -29 19 -30 25 -6 25 11 0 27 -9 37 -20z
m315 -24 c0 -16 51 -26 138 -26 34 0 62 -4 62 -10 0 -12 -404 -7 -432 5 -40
16 -13 25 73 24 54 -1 96 4 102 10 16 16 57 14 57 -3z m-1720 -10 c0 -2 -9 -6
-20 -9 -11 -3 -18 -1 -14 4 5 9 34 13 34 5z m-490 -14 c0 -5 23 -33 51 -63 28
-30 63 -70 78 -89 14 -19 29 -37 32 -40 14 -11 49 -90 49 -110 0 -31 -16 -57
-79 -129 l-56 -65 -7 53 c-9 61 -40 127 -46 98 -2 -11 -25 25 -60 95 -41 82
-71 127 -109 164 -59 58 -59 56 32 79 59 15 115 18 115 7z m2590 -19 c2 -2
-35 -3 -83 -2 -51 1 -84 6 -81 11 6 9 153 1 164 -9z m219 11 c17 -4 28 -10 25
-15 -7 -12 -104 -12 -104 0 0 18 32 24 79 15z m-945 -84 c4 -27 16 -77 27
-112 11 -34 17 -68 15 -75 -3 -7 -1 -15 4 -18 6 -4 10 -11 10 -16 0 -5 -19 12
-42 39 -56 65 -82 78 -115 57 -13 -9 -32 -23 -41 -31 -50 -44 -132 -104 -132
-97 0 4 -8 -8 -17 -27 -21 -44 -49 -81 -56 -74 -3 3 -20 -31 -38 -75 -27 -67
-47 -95 -111 -163 l-78 -82 -29 28 c-17 16 -39 47 -50 70 -17 37 -18 43 -4 58
9 10 20 15 24 12 12 -7 66 38 187 156 56 55 109 100 117 100 7 0 19 17 26 38
18 56 65 143 97 180 l29 33 13 -31 c13 -32 58 -70 83 -70 10 0 16 18 20 65 11
116 48 137 61 35z m-1459 9 c-3 -8 -15 -20 -26 -27 -19 -12 -19 -11 2 17 23
31 34 35 24 10z m1947 -3 c80 -5 120 -17 99 -31 -7 -4 -64 -6 -127 -6 -85 1
-124 6 -150 18 -29 14 -32 18 -17 24 10 4 41 5 68 3 28 -2 85 -5 127 -8z
m-1473 -127 l8 -50 -33 32 c-38 37 -42 54 -17 81 15 17 18 17 26 3 4 -8 12
-38 16 -66z m1056 -189 c10 -11 16 -20 13 -20 -3 0 -13 9 -23 20 -10 11 -16
20 -13 20 3 0 13 -9 23 -20z m-750 -240 c10 -11 13 -20 7 -20 -6 0 -16 9 -22
20 -6 11 -9 20 -7 20 2 0 12 -9 22 -20z m81 -137 c-8 -8 -36 10 -36 23 0 8 -4
14 -10 14 -5 0 -10 5 -10 12 0 6 13 -1 30 -17 16 -16 28 -30 26 -32z m-1521
18 c-20 -33 -214 -111 -275 -111 -38 0 -39 1 -29 24 17 36 44 47 209 85 49 12
102 13 95 2z m1396 -64 c-6 -8 -9 -16 -7 -18 2 -2 -7 -5 -21 -6 l-26 -1 29 19
c34 22 40 24 25 6z m39 -7 c0 -5 -4 -10 -10 -10 -5 0 -10 5 -10 10 0 6 5 10
10 10 6 0 10 -4 10 -10z m29 -17 c-6 -7 -16 -10 -22 -6 -6 4 -8 0 -4 -11 4
-10 1 -19 -8 -22 -8 -4 -12 -11 -8 -17 3 -6 1 -7 -5 -3 -9 5 -9 13 -2 27 6 10
7 19 3 19 -4 0 1 6 11 13 25 18 50 18 35 0z m1548 -3 c3 -11 4 -22 3 -26 -1
-4 4 -11 12 -16 11 -8 11 -9 0 -6 -17 5 -45 68 -31 68 6 0 13 -9 16 -20z
m-1684 -17 c-6 -16 -5 -16 10 -4 9 7 17 9 17 3 0 -14 -28 -23 -35 -12 -4 6 -3
15 0 20 10 16 15 11 8 -7z m218 -77 c18 -19 8 -27 -26 -22 -29 5 -35 3 -35
-12 0 -14 -2 -15 -10 -2 -5 8 -12 11 -17 7 -4 -4 -2 -17 5 -27 16 -26 15 -31
-3 -24 -19 8 -19 48 0 67 8 8 12 17 9 20 -14 14 9 46 34 49 22 2 28 -1 30 -22
2 -14 8 -29 13 -34z m-1796 45 c-16 -16 -85 -42 -85 -32 0 30 14 41 53 41 26
0 37 -4 32 -9z m1549 -47 c3 -8 2 -12 -4 -9 -6 3 -10 10 -10 16 0 14 7 11 14
-7z m27 -7 c-10 -9 -11 -8 -5 6 3 10 9 15 12 12 3 -3 0 -11 -7 -18z m-5 -39
c3 -4 -1 -5 -10 -4 -8 1 -18 5 -22 8 -3 4 1 5 10 4 8 -1 18 -5 22 -8z m1716
-20 c-7 -7 -12 -19 -12 -27 0 -9 -7 -25 -16 -36 -13 -17 -16 -18 -24 -5 -8 13
-13 13 -31 2 -37 -24 -9 7 39 43 48 35 65 44 44 23z m-1539 -49 c-6 -6 -9 -1
-7 13 3 33 6 36 11 14 3 -10 1 -22 -4 -27z m-25 3 c-4 -18 -28 -29 -28 -12 0
6 5 8 10 5 6 -3 10 -1 10 4 0 6 -4 11 -10 11 -5 0 -10 4 -10 10 0 5 7 7 15 3
9 -3 15 -12 13 -21z m309 -25 c6 -7 0 -9 -29 -11 -15 -1 -58 -43 -58 -57 0 -5
5 -8 11 -6 6 1 14 -5 16 -13 4 -13 3 -13 -6 0 -10 13 -11 13 -11 0 -1 -12 -3
-11 -11 3 -5 9 -8 21 -4 26 3 5 1 21 -4 35 -8 21 -7 24 5 19 8 -3 13 -12 10
-19 -3 -8 -3 -14 0 -14 2 0 9 11 14 24 7 19 15 24 35 22 14 -1 28 -6 32 -9z
m-286 -12 c5 4 6 -1 2 -10 -5 -13 -7 -14 -14 -3 -5 7 -8 18 -8 23 0 6 3 4 6
-3 2 -6 9 -10 14 -7z m69 0 c7 -9 8 -15 2 -15 -5 0 -12 7 -16 15 -3 8 -4 15
-2 15 2 0 9 -7 16 -15z m411 -21 c19 -19 26 -32 17 -29 -11 4 -18 2 -18 -4 0
-6 5 -11 11 -11 5 0 7 -5 4 -11 -5 -7 -13 -5 -24 5 -10 9 -23 16 -29 16 -7 0
-12 6 -12 13 0 6 -10 1 -21 -13 l-21 -25 16 27 c18 31 20 42 6 33 -5 -3 -7 0
-4 9 3 8 12 12 20 9 8 -3 14 0 14 6 0 16 3 15 41 -25z m1150 19 c2 -31 -2 -47
-27 -98 -29 -60 -47 -85 -63 -85 -6 0 -11 -4 -11 -9 0 -9 -7 -10 -68 -11 -13
0 -21 -4 -18 -9 3 -4 -6 -6 -20 -3 -20 3 -26 0 -31 -17 -3 -11 -10 -21 -15
-21 -6 0 -7 7 -4 16 3 8 2 13 -3 9 -5 -3 -12 1 -15 7 -3 7 -3 3 0 -9 4 -18 1
-23 -15 -23 -11 0 -32 -12 -46 -26 -32 -32 -54 -20 -34 17 11 22 34 43 41 38
7 -6 67 59 73 79 3 12 13 22 21 22 8 0 14 5 14 11 0 5 -6 7 -12 3 -7 -4 2 7
21 24 18 18 37 32 42 32 5 0 9 5 9 11 0 5 -4 7 -10 4 -5 -3 -10 -1 -10 4 0 12
26 15 33 3 11 -17 -25 -88 -64 -128 -31 -31 -38 -44 -26 -44 9 0 17 5 17 10 0
6 11 23 25 38 14 15 25 21 25 15 0 -7 6 -10 14 -7 8 3 17 1 20 -5 11 -17 49 6
75 44 13 19 28 55 33 80 10 45 27 61 29 28z m-1660 -23 c-3 -3 -9 -9 -12 -13
-4 -4 -6 3 -6 17 0 19 2 22 12 13 7 -7 10 -14 6 -17z m1099 -2 c0 -7 -5 -20
-10 -28 -8 -12 -10 -9 -10 13 0 15 5 27 10 27 6 0 10 -6 10 -12z m-1087 -23
c-3 -9 -8 -14 -10 -11 -3 3 -2 9 2 15 9 16 15 13 8 -4z m399 -7 c-7 -7 -12 -8
-12 -2 0 14 12 26 19 19 2 -3 -1 -11 -7 -17z m991 4 c-13 -2 -23 -8 -23 -15 0
-19 -43 -57 -64 -56 -21 0 -21 1 -1 9 11 5 16 9 12 9 -4 1 9 16 29 35 24 22
43 32 53 28 13 -5 11 -8 -6 -10z m-1243 -22 c6 -11 8 -20 6 -20 -3 0 -10 9
-16 20 -6 11 -8 20 -6 20 3 0 10 -9 16 -20z m-67 -4 c6 -15 -17 -16 -30 -1 -4
4 -2 5 5 1 6 -4 12 -2 12 3 0 15 7 14 13 -3z m487 -12 c0 -2 -9 0 -20 6 -11 6
-20 13 -20 16 0 2 9 0 20 -6 11 -6 20 -13 20 -16z m284 4 c5 -19 8 -21 16 -8
9 13 10 13 10 0 0 -10 3 -11 8 -4 5 8 11 7 22 -4 13 -14 12 -15 -3 -9 -10 4
-17 2 -17 -6 0 -7 -3 -8 -8 -2 -9 13 -42 19 -42 8 0 -5 7 -20 16 -33 l16 -25
-20 22 c-11 12 -21 20 -24 18 -3 -3 -3 23 1 58 2 16 19 6 25 -15z m-421 -13
c-3 -9 -8 -14 -10 -11 -3 3 -2 9 2 15 9 16 15 13 8 -4z m126 -12 c1 -1 -10 -1
-27 -1 -23 1 -27 4 -18 13 8 10 15 10 26 2 8 -6 17 -12 19 -14z m-164 8 c3 -5
0 -13 -6 -17 -7 -4 -9 -3 -5 4 3 5 0 13 -6 15 -9 4 -10 6 -1 6 6 1 14 -3 18
-8z m236 -18 c-12 -20 -14 -14 -5 12 4 9 9 14 11 11 3 -2 0 -13 -6 -23z m-641
-13 c0 -11 -2 -20 -4 -20 -2 0 -6 9 -9 20 -3 11 -1 20 4 20 5 0 9 -9 9 -20z
m823 -10 c3 -11 3 -20 1 -20 -2 0 -8 9 -14 20 -6 11 -7 20 -2 20 6 0 12 -9 15
-20z m-44 -23 c0 -9 -2 -8 -6 1 -2 6 -10 9 -15 6 -7 -4 -8 -2 -4 5 9 13 26 5
25 -12z m-397 -23 c-9 -16 -10 -14 -9 8 1 15 6 23 11 18 4 -4 4 -16 -2 -26z
m158 0 c0 -8 -19 -13 -24 -6 -3 5 1 9 9 9 8 0 15 -2 15 -3z m657 -34 c1 -11
-2 -20 -8 -20 -5 0 -9 9 -9 20 0 11 4 20 8 20 4 0 8 -9 9 -20z m33 -4 c0 -3
-4 -8 -10 -11 -5 -3 -10 -1 -10 4 0 6 5 11 10 11 6 0 10 -2 10 -4z m30 -49 c0
-2 -10 -12 -22 -23 l-23 -19 19 23 c18 21 26 27 26 19z"/>
<path d="M2285 3860 c4 -6 11 -8 16 -5 14 9 11 15 -7 15 -8 0 -12 -5 -9 -10z"/>
<path d="M1615 2760 c-3 -11 -11 -20 -16 -20 -5 0 -9 -17 -10 -37 0 -39 -17
-92 -19 -63 -1 25 -16 -9 -23 -52 -8 -53 10 -48 34 10 11 26 29 56 39 67 30
32 42 72 27 95 -15 25 -24 25 -32 0z"/>
<path d="M1800 2770 c8 -5 20 -10 25 -10 6 0 3 5 -5 10 -8 5 -19 10 -25 10 -5
0 -3 -5 5 -10z"/>
<path d="M1860 2720 c0 -19 3 -21 12 -12 9 9 9 15 0 24 -9 9 -12 7 -12 -12z"/>
<path d="M2278 2423 c7 -3 16 -2 19 1 4 3 -2 6 -13 5 -11 0 -14 -3 -6 -6z"/>
<path d="M2208 2413 c7 -3 16 -2 19 1 4 3 -2 6 -13 5 -11 0 -14 -3 -6 -6z"/>
<path d="M2091 2253 c7 -12 15 -20 18 -17 3 2 -3 12 -13 22 -17 16 -18 16 -5
-5z"/>
<path d="M3146 1645 c4 -8 10 -15 15 -15 5 0 9 -7 9 -15 0 -8 4 -15 9 -15 5 0
12 -9 16 -20 3 -11 10 -19 15 -17 5 1 32 -20 60 -46 28 -27 54 -46 58 -42 4 3
2 9 -3 13 -6 4 -36 38 -69 75 -58 67 -122 115 -110 82z"/>
<path d="M3400 1526 c28 -17 70 -21 70 -6 0 6 -13 10 -29 10 -16 0 -38 3 -48
6 -10 3 -7 -2 7 -10z"/>
<path d="M3150 1301 c0 -6 4 -13 10 -16 6 -3 7 1 4 9 -7 18 -14 21 -14 7z"/>
<path d="M3200 1191 c0 -6 4 -13 10 -16 6 -3 7 1 4 9 -7 18 -14 21 -14 7z"/>
<path d="M3626 1155 c-3 -8 -1 -15 4 -15 6 0 10 7 10 15 0 8 -2 15 -4 15 -2 0
-6 -7 -10 -15z"/>
<path d="M3636 1075 c-9 -26 -7 -32 5 -12 6 10 9 21 6 23 -2 3 -7 -2 -11 -11z"/>
<path d="M2526 843 c-6 -14 -5 -15 5 -6 7 7 10 15 7 18 -3 3 -9 -2 -12 -12z"/>
<path d="M3060 824 c0 -5 7 -18 15 -28 8 -11 15 -16 15 -10 0 5 -7 18 -15 28
-8 11 -15 16 -15 10z"/>
<path d="M2610 801 c0 -6 4 -13 10 -16 6 -3 7 1 4 9 -7 18 -14 21 -14 7z"/>
<path d="M2540 765 c14 -17 25 -31 25 -32 0 0 7 9 16 21 16 20 16 22 -2 22
-11 0 -19 -5 -19 -10 0 -5 -10 -1 -22 10 -20 17 -20 15 2 -11z"/>
<path d="M2880 781 c0 -6 4 -13 10 -16 6 -3 7 1 4 9 -7 18 -14 21 -14 7z"/>
<path d="M2716 772 c-3 -5 1 -9 9 -9 8 0 12 4 9 9 -3 4 -7 8 -9 8 -2 0 -6 -4
-9 -8z"/>
<path d="M3100 741 c0 -6 4 -13 10 -16 6 -3 7 1 4 9 -7 18 -14 21 -14 7z"/>
<path d="M2530 729 c0 -5 5 -7 10 -4 6 3 10 8 10 11 0 2 -4 4 -10 4 -5 0 -10
-5 -10 -11z"/>
<path d="M2936 722 c7 -4 10 -21 8 -38 -2 -22 3 -40 19 -57 l22 -26 0 23 c0
14 -6 23 -15 22 -8 -1 -15 10 -16 27 -2 15 2 27 8 27 7 0 6 6 -2 15 -7 8 -18
15 -24 15 -8 0 -8 -2 0 -8z"/>
<path d="M3100 703 c0 -6 8 -17 18 -24 16 -13 16 -13 2 6 -8 11 -16 22 -17 24
-2 2 -3 0 -3 -6z"/>
<path d="M3146 695 c-9 -26 -7 -32 5 -12 6 10 9 21 6 23 -2 3 -7 -2 -11 -11z"/>
<path d="M3047 686 c-4 -10 -1 -13 8 -9 8 3 12 9 9 14 -7 12 -11 11 -17 -5z"/>
<path d="M2550 681 c0 -6 4 -13 10 -16 6 -3 7 1 4 9 -7 18 -14 21 -14 7z"/>
<path d="M3132 644 c-7 -8 -8 -14 -3 -14 10 0 25 19 20 25 -2 1 -10 -3 -17
-11z"/>
<path d="M2705 640 c-3 -5 -1 -10 4 -10 6 0 11 5 11 10 0 6 -2 10 -4 10 -3 0
-8 -4 -11 -10z"/>
<path d="M1098 1763 c7 -3 16 -2 19 1 4 3 -2 6 -13 5 -11 0 -14 -3 -6 -6z"/>
<path d="M1070 1683 c1 -14 30 -47 36 -41 6 7 -17 48 -28 48 -5 0 -8 -3 -8 -7z"/>
<path d="M2837 676 c-3 -8 -2 -18 3 -21 13 -8 24 15 12 27 -6 6 -11 4 -15 -6z"/>
<path d="M885 1320 c-4 -6 -11 -8 -16 -5 -5 4 -9 1 -9 -4 0 -13 20 -14 39 -2
8 5 9 11 3 15 -6 3 -13 2 -17 -4z"/>
<path d="M1030 1200 c0 -5 5 -10 11 -10 5 0 7 5 4 10 -3 6 -8 10 -11 10 -2 0
-4 -4 -4 -10z"/>
<path d="M800 1118 c0 -4 4 -8 9 -8 6 0 12 4 15 8 3 5 -1 9 -9 9 -8 0 -15 -4
-15 -9z"/>
<path d="M890 1110 c0 -5 7 -10 15 -10 8 0 15 5 15 10 0 6 -7 10 -15 10 -8 0
-15 -4 -15 -10z"/>
<path d="M221 793 c2 -6 32 -33 66 -61 34 -28 87 -85 118 -127 60 -79 79 -98
73 -71 -1 9 -27 47 -57 84 -72 89 -215 214 -200 175z"/>
</g>
</svg>
